<?xml version="1.0" standalone="no"?>
<!DOCTYPE svg PUBLIC "-//W3C//DTD SVG 20010904//EN"
 "http://www.w3.org/TR/2001/REC-SVG-20010904/DTD/svg10.dtd">
<svg version="1.0" xmlns="http://www.w3.org/2000/svg"
 width="266.000000pt" height="266.000000pt" viewBox="0 0 266.000000 266.000000"
 preserveAspectRatio="xMidYMid meet">
<metadata>
Created by potrace 1.14, written by Peter Selinger 2001-2017
</metadata>
<g transform="translate(0.000000,266.000000) scale(0.100000,-0.100000)"
fill="#000000" stroke="none">
<path d="M0 1330 l0 -1330 1330 0 1330 0 0 1330 0 1330 -1330 0 -1330 0 0
-1330z m880 208 c0 -497 2 -546 18 -577 26 -51 60 -72 119 -73 61 0 107 22
133 65 16 26 20 50 20 130 l0 97 155 0 155 0 0 -94 c0 -178 -34 -271 -136
-374 -73 -73 -144 -109 -245 -125 -181 -28 -347 48 -450 206 -67 103 -69 125
-69 741 l0 546 150 0 150 0 0 -542z m910 514 c111 -44 218 -150 261 -259 l24
-58 3 -577 3 -578 -156 0 -155 0 0 543 c0 523 -1 543 -20 575 -35 56 -72 72
-177 72 l-93 0 0 -145 0 -145 -155 0 -155 0 0 301 0 300 283 -3 c264 -3 286
-5 337 -26z"/>
</g>
</svg>
